<svg width="206" height="64" viewBox="0 0 206 64" fill="none" xmlns="http://www.w3.org/2000/svg" style="margin-top: -10px;">
<path d="M29.6548 21.8516C28.1113 21.8516 26.6024 22.3093 25.319 23.1668C24.0356 24.0243 23.0353 25.2432 22.4447 26.6692C21.854 28.0953 21.6994 29.6644 22.0005 31.1783C22.3017 32.6922 23.045 34.0828 24.1364 35.1742C25.2278 36.2656 26.6184 37.0089 28.1323 37.31C29.6461 37.6112 31.2153 37.4566 32.6413 36.8659C34.0674 36.2752 35.2862 35.275 36.1438 33.9916C37.0013 32.7082 37.459 31.1993 37.459 29.6558C37.459 27.586 36.6368 25.6009 35.1732 24.1374C33.7096 22.6738 31.7246 21.8516 29.6548 21.8516ZM33.2135 27.2209C32.9909 27.2216 32.7731 27.1563 32.5877 27.0331C32.4023 26.9099 32.2577 26.7344 32.1721 26.5289C32.0866 26.3234 32.064 26.0971 32.1072 25.8788C32.1505 25.6604 32.2576 25.4598 32.415 25.3024C32.5724 25.145 32.773 25.0379 32.9913 24.9947C33.2097 24.9514 33.436 24.974 33.6415 25.0595C33.847 25.1451 34.0225 25.2897 34.1457 25.4751C34.2688 25.6605 34.3342 25.8784 34.3334 26.101C34.3334 26.396 34.2171 26.6791 34.0096 26.8887C33.8021 27.0984 33.5202 27.2178 33.2252 27.2209H33.2135Z" fill="#E82C2B"/>
<path d="M58.4979 19.6035H54.6426V23.1115H58.4979V19.6035Z" fill="#231F20"/>
<path d="M58.4979 24.8486H54.6426V39.3879H58.4979V24.8486Z" fill="#231F20"/>
<path d="M73.2181 25.6798C72.1716 24.8665 70.8702 24.4516 69.5462 24.5092C68.4892 24.4675 67.448 24.7761 66.5845 25.3872C66.0394 25.8471 65.5728 26.3927 65.2031 27.0026V24.8838H61.5234V39.3918H65.3241V31.5174C65.2996 30.7613 65.4256 30.0079 65.6948 29.301C66.1708 28.2084 67.0488 27.6621 68.3287 27.6621C69.3693 27.6621 70.0756 28.0354 70.4476 28.782C70.6783 29.3388 70.7823 29.9399 70.7519 30.5418V39.384H74.654V29.5936C74.6488 27.7726 74.1702 26.468 73.2181 25.6798Z" fill="#231F20"/>
<path d="M89.6228 38.3852C89.4626 38.0717 89.3847 37.7226 89.3965 37.3707C89.377 36.7151 89.3692 36.1532 89.3692 35.6889V29.0202C89.3692 27.2721 88.7487 26.0806 87.5079 25.4459C86.1823 24.7982 84.7219 24.4746 83.2468 24.5016C80.7936 24.5016 79.0611 25.1415 78.0492 26.4214C77.3853 27.3301 77.0112 28.4182 76.9761 29.5431H80.6441C80.7046 29.0583 80.8916 28.5981 81.1865 28.2086C81.5637 27.7689 82.214 27.5478 83.1375 27.5452C83.7697 27.5098 84.4013 27.6262 84.9793 27.8847C85.1919 28.0076 85.3643 28.1895 85.4758 28.4083C85.5873 28.6271 85.633 28.8735 85.6076 29.1177C85.6042 29.3618 85.5229 29.5983 85.3754 29.7928C85.228 29.9873 85.0222 30.1295 84.7881 30.1986C84.2984 30.3738 83.7883 30.4853 83.2702 30.5303L81.9669 30.6903C80.7998 30.7886 79.6615 31.1049 78.6111 31.6229C77.2219 32.4215 76.5273 33.7157 76.5273 35.5055C76.5273 36.8829 76.9566 37.9482 77.8228 38.7013C78.7383 39.4694 79.9065 39.8699 81.1006 39.8251C82.0768 39.8414 83.0398 39.5976 83.8906 39.1188C84.5694 38.7303 85.1851 38.2409 85.7168 37.6673C85.7454 37.995 85.7805 38.2877 85.8222 38.5452C85.8748 38.8284 85.9559 39.1055 86.0641 39.3725H90.1964V38.8262C89.9688 38.734 89.7705 38.5815 89.6228 38.3852ZM85.5802 33.73C85.5542 35.0021 85.1913 35.8775 84.4915 36.3562C83.8182 36.828 83.0154 37.0801 82.1932 37.078C81.7129 37.0923 81.2425 36.9392 80.8626 36.6449C80.6673 36.4694 80.5158 36.2505 80.4202 36.0059C80.3247 35.7613 80.2878 35.4977 80.3124 35.2362C80.2955 34.9104 80.3707 34.5865 80.5294 34.3014C80.6882 34.0164 80.924 33.7819 81.2099 33.6247C81.7606 33.3574 82.351 33.1808 82.958 33.1018L83.8243 32.9418C84.1706 32.8857 84.5114 32.7995 84.8427 32.6843C85.1004 32.5874 85.3475 32.4645 85.5802 32.3175V33.73Z" fill="#231F20"/>
<path d="M99.8939 24.5287C98.8028 24.5031 97.7349 24.8453 96.8619 25.5003C96.344 25.9224 95.8996 26.4274 95.5469 26.9948V24.8487H91.9062V45.1084H95.664V37.5305C95.9959 38.0627 96.4139 38.5361 96.9009 38.9314C97.7449 39.533 98.7646 39.8377 99.8002 39.7976C100.65 39.821 101.494 39.6521 102.269 39.3034C103.044 38.9547 103.73 38.4354 104.276 37.7841C105.434 36.4418 106.014 34.4908 106.016 31.931C106.016 29.5039 105.423 27.6634 104.237 26.4095C103.688 25.8055 103.017 25.3253 102.268 25.001C101.519 24.6767 100.71 24.5157 99.8939 24.5287ZM101.252 35.3843C100.984 35.7823 100.619 36.1044 100.19 36.3191C99.7611 36.5338 99.284 36.6339 98.8052 36.6096C98.1195 36.626 97.4476 36.4162 96.8931 36.0126C95.9853 35.3258 95.5313 34.1383 95.5313 32.45C95.4995 31.553 95.6317 30.6577 95.9215 29.8082C96.1187 29.213 96.5065 28.6993 97.0249 28.3467C97.5433 27.994 98.1635 27.822 98.7896 27.8572C99.9498 27.8572 100.787 28.2877 101.303 29.1488C101.823 30.1092 102.091 31.1866 102.079 32.2791C102.067 33.3716 101.777 34.443 101.236 35.3922L101.252 35.3843Z" fill="#231F20"/>
<path d="M115.892 24.501C114.89 24.4549 113.904 24.7722 113.118 25.3946C112.507 25.9737 111.99 26.6436 111.584 27.3808V24.8483H107.955V39.3836H111.783V32.434C111.731 31.5493 111.882 30.6645 112.224 29.8469C112.744 28.8506 113.772 28.3537 115.307 28.3563H115.759C115.947 28.3563 116.149 28.3836 116.399 28.4109V24.5088L116.071 24.4893C116.011 24.4888 115.951 24.4927 115.892 24.501Z" fill="#231F20"/>
<path d="M124.478 24.3799C121.975 24.3799 120.113 25.1486 118.89 26.686C117.693 28.2557 117.045 30.175 117.045 32.149C117.045 34.1229 117.693 36.0422 118.89 37.6119C120.115 39.1285 121.978 39.8868 124.478 39.8868C126.978 39.8868 128.84 39.1285 130.066 37.6119C131.26 36.0412 131.907 34.1223 131.907 32.149C131.907 30.1757 131.26 28.2568 130.066 26.686C128.848 25.1486 126.986 24.3799 124.478 24.3799ZM127.038 35.5087C126.722 35.8805 126.329 36.1791 125.886 36.3839C125.444 36.5887 124.962 36.6948 124.474 36.6948C123.986 36.6948 123.504 36.5887 123.062 36.3839C122.619 36.1791 122.226 35.8805 121.91 35.5087C121.312 34.7283 121.013 33.6058 121.013 32.1412C121.013 30.6766 121.312 29.5554 121.91 28.7776C122.227 28.4081 122.621 28.1116 123.063 27.9084C123.506 27.7051 123.987 27.5998 124.474 27.5998C124.961 27.5998 125.442 27.7051 125.885 27.9084C126.327 28.1116 126.72 28.4081 127.038 28.7776C127.633 29.558 127.931 30.6792 127.931 32.1412C127.931 33.6032 127.633 34.7257 127.038 35.5087Z" fill="#231F20"/>
<path d="M143.337 26.686C142.919 26.0007 142.328 25.4378 141.623 25.0541C140.918 24.6705 140.124 24.4796 139.321 24.5008C138.444 24.4701 137.571 24.6474 136.775 25.0184C135.979 25.3893 135.281 25.9434 134.74 26.6353C133.596 28.0556 133.023 30.0067 133.023 32.4884C133.023 34.6424 133.604 36.4048 134.764 37.7758C135.275 38.4239 135.927 38.9466 136.671 39.3037C137.415 39.6608 138.231 39.8429 139.056 39.8361C139.955 39.8678 140.846 39.6662 141.643 39.2508C142.41 38.7889 143.048 38.1423 143.501 37.37V39.3834H147.192V19.752H143.341L143.337 26.686ZM142.603 35.4384C142.33 35.8304 141.961 36.1461 141.531 36.3557C141.102 36.5653 140.626 36.6619 140.149 36.6364C139.677 36.6649 139.207 36.5684 138.785 36.3567C138.363 36.145 138.004 35.8255 137.745 35.4306C137.175 34.4557 136.904 33.3351 136.965 32.2075C136.928 31.1144 137.198 30.033 137.745 29.0858C138.001 28.6736 138.364 28.3386 138.796 28.1166C139.227 27.8947 139.711 27.794 140.196 27.8254C140.899 27.8165 141.581 28.0633 142.115 28.52C143.013 29.2848 143.462 30.5556 143.462 32.3323C143.502 33.4314 143.203 34.5163 142.603 35.4384Z" fill="#231F20"/>
<path d="M159.096 32.7777C159.117 33.5468 158.985 34.3124 158.705 35.0292C158.224 36.0698 157.338 36.5901 156.048 36.5901C155.041 36.5901 154.365 36.222 154.019 35.4858C153.793 34.8897 153.693 34.2532 153.726 33.6167V24.8486H149.84V33.6089C149.84 35.2712 150.051 36.5315 150.464 37.3861C151.208 38.9313 152.655 39.704 154.803 39.704C155.466 39.7171 156.125 39.6182 156.754 39.4113C157.394 39.1634 157.979 38.7922 158.475 38.3187C158.672 38.1475 158.842 37.9491 158.982 37.7295C159.123 37.5071 159.213 37.3744 159.248 37.3393V39.3918H162.943V24.8486H159.088L159.096 32.7777Z" fill="#231F20"/>
<path d="M172.118 27.7046C172.497 27.6753 172.877 27.7401 173.225 27.8933C173.573 28.0464 173.877 28.2832 174.112 28.5826C174.406 29.0221 174.593 29.5247 174.658 30.0498H178.56C178.344 27.9686 177.656 26.5235 176.496 25.7145C175.336 24.9055 173.844 24.4971 172.02 24.4893C169.874 24.4893 168.191 25.1825 166.971 26.5691C165.751 27.9556 165.139 29.895 165.137 32.3871C165.137 34.5957 165.688 36.3946 166.791 37.7837C167.894 39.1729 169.616 39.8662 171.958 39.8636C174.299 39.8636 176.065 39.0324 177.257 37.3701C177.975 36.4158 178.411 35.2786 178.513 34.0884H174.611C174.565 34.7625 174.329 35.4095 173.928 35.9536C173.554 36.4349 172.921 36.6755 172.032 36.6755C171.462 36.7045 170.9 36.5414 170.434 36.2124C169.969 35.8833 169.627 35.4074 169.464 34.8611C169.181 34.0355 169.049 33.1658 169.074 32.2935C169.048 31.3815 169.18 30.472 169.464 29.6049C169.951 28.338 170.835 27.7046 172.118 27.7046Z" fill="#231F20"/>
<path d="M184.763 20.9268H181.002V24.9732H178.977V27.7047H181.002V36.6522C181.002 37.5627 181.215 38.2339 181.642 38.6657C182.301 39.3525 183.526 39.6608 185.325 39.6022L187.124 39.532V36.6796C186.999 36.6796 186.874 36.6796 186.734 36.703H186.367C185.587 36.703 185.13 36.6288 184.978 36.4845C184.826 36.3401 184.752 35.9655 184.752 35.3685V27.7047H187.093V24.9732H184.752L184.763 20.9268Z" fill="#231F20"/>
<path d="M193.516 36.0254H190.109V39.3851H193.516V36.0254Z" fill="#231F20"/>
<path d="M191.654 34.5289C192.129 34.5446 192.595 34.3926 192.969 34.0997C193.14 33.9628 193.276 33.7877 193.367 33.5884C193.458 33.3891 193.501 33.1713 193.492 32.9524C193.507 32.7566 193.483 32.5597 193.42 32.3736C193.357 32.1876 193.256 32.0163 193.125 31.8703C192.993 31.7243 192.834 31.6065 192.655 31.5242C192.477 31.4419 192.284 31.3968 192.087 31.3916V31.9964C192.326 32.0359 192.548 32.1429 192.727 32.3047C192.806 32.3845 192.868 32.4797 192.908 32.5845C192.948 32.6893 192.966 32.8013 192.961 32.9134C192.972 33.06 192.941 33.2067 192.872 33.3365C192.803 33.4662 192.699 33.5739 192.571 33.647C192.29 33.8106 191.968 33.8917 191.642 33.8811C191.327 33.8909 191.014 33.8351 190.721 33.7173C190.548 33.6561 190.399 33.5415 190.295 33.39C190.191 33.2385 190.138 33.058 190.144 32.8744C190.133 32.7595 190.147 32.6435 190.187 32.5348C190.226 32.4262 190.288 32.3276 190.37 32.2462C190.529 32.1095 190.724 32.0226 190.932 31.9964V31.3955C190.736 31.3984 190.543 31.4415 190.365 31.522C190.186 31.6026 190.026 31.7189 189.894 31.8638C189.682 32.1566 189.576 32.5131 189.594 32.8744C189.588 33.101 189.634 33.326 189.727 33.5327C189.82 33.7393 189.959 33.9224 190.132 34.0684C190.564 34.4065 191.107 34.5708 191.654 34.5289Z" fill="#231F20"/>
<path d="M191.628 30.8276C192.125 30.8539 192.614 30.6954 193.002 30.3828C193.172 30.2358 193.307 30.0519 193.397 29.8451C193.486 29.6382 193.527 29.4138 193.517 29.1888C193.535 28.9365 193.491 28.6835 193.39 28.4517C193.289 28.2199 193.133 28.0162 192.935 27.8582C192.507 27.5576 191.991 27.4068 191.468 27.4289C191.215 27.4101 190.962 27.4437 190.723 27.5276C190.484 27.6116 190.264 27.744 190.079 27.9167C189.924 28.0732 189.803 28.2593 189.722 28.4637C189.641 28.6682 189.602 28.8869 189.607 29.1068C189.597 29.3434 189.641 29.5791 189.736 29.7961C189.83 30.0131 189.973 30.2057 190.153 30.3594C190.572 30.6889 191.096 30.8553 191.628 30.8276ZM190.653 28.2366C190.914 28.1174 191.2 28.0613 191.488 28.0728C191.844 28.0672 192.197 28.1447 192.518 28.2991C192.671 28.3738 192.797 28.4935 192.88 28.642C192.963 28.7905 192.999 28.9609 192.982 29.1302C192.995 29.2874 192.965 29.4452 192.897 29.5872C192.828 29.7291 192.723 29.8503 192.592 29.938C192.299 30.1175 191.96 30.2058 191.616 30.1916C191.253 30.2034 190.892 30.1157 190.575 29.938C190.434 29.8552 190.32 29.7351 190.244 29.591C190.169 29.447 190.134 29.2848 190.145 29.1224C190.135 28.9435 190.177 28.7655 190.267 28.6107C190.358 28.4559 190.492 28.3312 190.653 28.2523V28.2366Z" fill="#231F20"/>
<path d="M189.64 24.8092C189.637 25.0551 189.709 25.2961 189.847 25.4999C189.958 25.6474 190.09 25.7787 190.237 25.8901H189.714V26.5027H193.386V25.8823H191.435C191.261 25.902 191.085 25.887 190.917 25.8381C190.749 25.7892 190.592 25.7074 190.456 25.5975C190.37 25.5149 190.302 25.4162 190.255 25.307C190.208 25.1977 190.184 25.0803 190.183 24.9614C190.171 24.8582 190.189 24.7538 190.235 24.6605C190.28 24.5672 190.352 24.4889 190.44 24.4346C190.614 24.3662 190.8 24.3369 190.986 24.3488H193.382V23.7205H191.248C191.101 23.7348 190.953 23.7185 190.812 23.6729C190.672 23.6272 190.543 23.5531 190.432 23.4552C190.273 23.2865 190.187 23.0625 190.19 22.8309C190.186 22.6705 190.234 22.5131 190.327 22.3821C190.391 22.3149 190.47 22.2634 190.557 22.2316C190.645 22.1998 190.738 22.1886 190.83 22.1987H193.382V21.5588H190.94C190.672 21.5454 190.405 21.5949 190.159 21.7031C189.98 21.7989 189.834 21.9458 189.739 22.1251C189.643 22.3044 189.604 22.508 189.625 22.7099C189.617 22.9287 189.667 23.1457 189.768 23.3398C189.869 23.5339 190.019 23.6987 190.202 23.8181C190.063 23.8843 189.94 23.9786 189.839 24.0951C189.691 24.3023 189.62 24.5552 189.64 24.8092Z" fill="#231F20"/>
<path d="M46.8249 29.6557C46.8293 33.1316 45.7714 36.5258 43.7929 39.3837L40.4059 35.9967C41.9497 33.3787 42.4857 30.2875 41.9133 27.3026C41.341 24.3177 39.6996 21.644 37.297 19.7827C34.8943 17.9214 31.8952 17.0004 28.862 17.1922C25.8288 17.384 22.9696 18.6755 20.8205 20.8246C18.6714 22.9737 17.38 25.8328 17.1882 28.866C16.9964 31.8992 17.9174 34.8983 19.7787 37.301C21.64 39.7037 24.3137 41.345 27.2986 41.9174C30.2835 42.4897 33.3746 41.9537 35.9926 40.4099L39.3797 43.797C36.2169 45.9705 32.4171 47.0217 28.5869 46.7828C24.7567 46.5439 21.117 45.0287 18.2487 42.4791C15.3805 39.9294 13.4491 36.4924 12.763 32.7166C12.0769 28.9408 12.6755 25.044 14.4633 21.6482C16.2511 18.2525 19.1251 15.5536 22.6263 13.9824C26.1276 12.4113 30.0543 12.0584 33.7796 12.9802C37.5049 13.902 40.8139 16.0452 43.1785 19.0678C45.5431 22.0904 46.8269 25.8181 46.8249 29.6557Z" fill="#F68C2A"/>
<path d="M46.0018 42.8713C46.0015 43.4883 45.8184 44.0913 45.4756 44.6043C45.1328 45.1173 44.6457 45.5172 44.0758 45.7535C43.5059 45.9898 42.8787 46.0519 42.2735 45.932C41.6683 45.8122 41.1122 45.5156 40.6754 45.0799L39.4111 43.7961C39.6257 43.6478 39.8404 43.4917 40.0511 43.3356C41.3005 42.3867 42.415 41.2722 43.364 40.0228C43.5201 39.812 43.6761 39.6013 43.8244 39.3828L45.1082 40.6666C45.3956 40.9567 45.6225 41.301 45.7759 41.6794C45.9293 42.0579 46.0061 42.463 46.0018 42.8713Z" fill="#E82C2B"/>
<path d="M40.4155 35.9964C41.9593 33.3784 42.4953 30.2872 41.9229 27.3023C41.3506 24.3174 39.7092 21.6437 37.3066 19.7824C34.9039 17.9212 31.9048 17.0001 28.8716 17.1919C25.8384 17.3837 22.9792 18.6752 20.8301 20.8243C18.681 22.9734 17.3896 25.8325 17.1978 28.8658C17.006 31.899 17.927 34.898 19.7883 37.3007C21.6496 39.7034 24.3233 41.3447 27.3082 41.9171C30.2931 42.4894 33.3842 41.9535 36.0022 40.4097L39.3893 43.7967C39.6039 43.6484 39.8185 43.4923 40.0292 43.3362C41.2786 42.3873 42.3931 41.2728 43.3421 40.0234C43.4982 39.8126 43.6543 39.6019 43.8025 39.3834L40.4155 35.9964ZM29.6535 37.4597C28.11 37.4597 26.6011 37.002 25.3177 36.1444C24.0343 35.2869 23.034 34.068 22.4434 32.642C21.8527 31.216 21.6981 29.6468 21.9993 28.1329C22.3004 26.6191 23.0437 25.2285 24.1351 24.137C25.2265 23.0456 26.6171 22.3023 28.131 22.0012C29.6449 21.7001 31.214 21.8546 32.6401 22.4453C34.0661 23.036 35.2849 24.0363 36.1425 25.3197C37 26.6031 37.4577 28.1119 37.4577 29.6555C37.4577 31.7253 36.6355 33.7103 35.1719 35.1739C33.7083 36.6375 31.7233 37.4597 29.6535 37.4597Z" fill="white"/>
<path d="M34.3375 26.1013C34.3367 26.3227 34.2703 26.5388 34.1468 26.7225C34.0233 26.9061 33.8481 27.049 33.6434 27.1332C33.4387 27.2174 33.2137 27.239 32.9967 27.1953C32.7797 27.1517 32.5805 27.0447 32.4243 26.8879C32.2681 26.7312 32.1618 26.5316 32.1189 26.3145C32.076 26.0974 32.0984 25.8724 32.1833 25.668C32.2682 25.4636 32.4117 25.2889 32.5958 25.166C32.7799 25.0431 32.9962 24.9775 33.2176 24.9775C33.365 24.9775 33.5109 25.0066 33.647 25.0632C33.7832 25.1197 33.9068 25.2025 34.0108 25.3069C34.1149 25.4113 34.1973 25.5353 34.2533 25.6716C34.3094 25.8079 34.338 25.954 34.3375 26.1013Z" fill="white"/>
<path d="M56.7845 52.9914C57.462 52.9914 58.0541 53.1226 58.5607 53.3851C59.0734 53.6414 59.4671 54.0138 59.7418 54.502C60.0225 54.9842 60.1629 55.5488 60.1629 56.1958C60.1629 56.8428 60.0225 57.4044 59.7418 57.8804C59.4671 58.3565 59.0734 58.7228 58.5607 58.9791C58.0541 59.2294 57.462 59.3545 56.7845 59.3545H54.7062V52.9914H56.7845ZM56.7845 58.503C57.5292 58.503 58.0999 58.3016 58.4966 57.8988C58.8933 57.4959 59.0917 56.9283 59.0917 56.1958C59.0917 55.4573 58.8933 54.8805 58.4966 54.4654C58.0999 54.0504 57.5292 53.8428 56.7845 53.8428H55.7499V58.503H56.7845ZM61.9115 53.6414C61.7223 53.6414 61.5636 53.5773 61.4354 53.4492C61.3072 53.321 61.2431 53.1623 61.2431 52.9731C61.2431 52.7839 61.3072 52.6252 61.4354 52.497C61.5636 52.3688 61.7223 52.3047 61.9115 52.3047C62.0946 52.3047 62.2502 52.3688 62.3784 52.497C62.5066 52.6252 62.5707 52.7839 62.5707 52.9731C62.5707 53.1623 62.5066 53.321 62.3784 53.4492C62.2502 53.5773 62.0946 53.6414 61.9115 53.6414ZM62.4242 54.3098V59.3545H61.3805V54.3098H62.4242ZM65.0214 55.0422C65.174 54.7859 65.3754 54.5875 65.6256 54.4471C65.882 54.3006 66.1841 54.2274 66.532 54.2274V55.3077H66.2665C65.8576 55.3077 65.5463 55.4115 65.3327 55.619C65.1251 55.8266 65.0214 56.1867 65.0214 56.6994V59.3545H63.9776V54.3098H65.0214V55.0422ZM72.2981 56.7085C72.2981 56.8978 72.2859 57.0687 72.2615 57.2212H68.407C68.4375 57.6241 68.587 57.9476 68.8556 58.1917C69.1242 58.4359 69.4538 58.558 69.8444 58.558C70.4059 58.558 70.8027 58.323 71.0346 57.853H72.1608C72.0082 58.3169 71.7305 58.6983 71.3276 58.9974C70.9309 59.2904 70.4365 59.4369 69.8444 59.4369C69.3622 59.4369 68.9289 59.3301 68.5443 59.1164C68.1659 58.8967 67.8668 58.5915 67.6471 58.2009C67.4334 57.8042 67.3266 57.3464 67.3266 56.8276C67.3266 56.3087 67.4304 55.854 67.6379 55.4634C67.8515 55.0666 68.1476 54.7615 68.526 54.5478C68.9105 54.3342 69.35 54.2274 69.8444 54.2274C70.3205 54.2274 70.7447 54.3311 71.117 54.5387C71.4894 54.7462 71.7793 55.0392 71.9868 55.4176C72.1943 55.7899 72.2981 56.2202 72.2981 56.7085ZM71.2086 56.3789C71.2025 55.9944 71.0651 55.6862 70.7966 55.4542C70.528 55.2223 70.1954 55.1063 69.7986 55.1063C69.4385 55.1063 69.1303 55.2223 68.8739 55.4542C68.6176 55.6801 68.465 55.9883 68.4161 56.3789H71.2086ZM75.5043 56.8367L77.8298 59.3545H76.4198L74.5521 57.1846V59.3545H73.5083V52.5794H74.5521V56.5163L76.3832 54.3098H77.8298L75.5043 56.8367ZM79.9787 55.1612V57.9537C79.9787 58.1429 80.0214 58.2802 80.1069 58.3657C80.1984 58.445 80.351 58.4847 80.5646 58.4847H81.2055V59.3545H80.3815C79.9115 59.3545 79.5514 59.2446 79.3012 59.0249C79.0509 58.8052 78.9258 58.4481 78.9258 57.9537V55.1612H78.3307V54.3098H78.9258V53.0555H79.9787V54.3098H81.2055V55.1612H79.9787ZM84.5388 59.4369C84.0627 59.4369 83.6324 59.3301 83.2479 59.1164C82.8633 58.8967 82.5612 58.5915 82.3415 58.2009C82.1217 57.8042 82.0119 57.3464 82.0119 56.8276C82.0119 56.3148 82.1248 55.8601 82.3506 55.4634C82.5764 55.0666 82.8847 54.7615 83.2753 54.5478C83.666 54.3342 84.1024 54.2274 84.5846 54.2274C85.0668 54.2274 85.5032 54.3342 85.8938 54.5478C86.2844 54.7615 86.5927 55.0666 86.8185 55.4634C87.0444 55.8601 87.1573 56.3148 87.1573 56.8276C87.1573 57.3403 87.0413 57.795 86.8094 58.1917C86.5774 58.5885 86.26 58.8967 85.8572 59.1164C85.4604 59.3301 85.021 59.4369 84.5388 59.4369ZM84.5388 58.5305C84.8074 58.5305 85.0576 58.4664 85.2895 58.3382C85.5276 58.21 85.7199 58.0178 85.8663 57.7614C86.0128 57.5051 86.0861 57.1938 86.0861 56.8276C86.0861 56.4613 86.0159 56.1531 85.8755 55.9028C85.7351 55.6465 85.549 55.4542 85.317 55.326C85.0851 55.1979 84.8348 55.1338 84.5663 55.1338C84.2977 55.1338 84.0474 55.1979 83.8155 55.326C83.5897 55.4542 83.4096 55.6465 83.2753 55.9028C83.141 56.1531 83.0739 56.4613 83.0739 56.8276C83.0739 57.3708 83.2112 57.7919 83.4859 58.091C83.7667 58.384 84.1176 58.5305 84.5388 58.5305ZM89.4159 55.0422C89.5685 54.7859 89.7699 54.5875 90.0202 54.4471C90.2765 54.3006 90.5787 54.2274 90.9266 54.2274V55.3077H90.6611C90.2521 55.3077 89.9408 55.4115 89.7272 55.619C89.5197 55.8266 89.4159 56.1867 89.4159 56.6994V59.3545H88.3722V54.3098H89.4159V55.0422ZM92.6001 53.6414C92.4109 53.6414 92.2522 53.5773 92.124 53.4492C91.9958 53.321 91.9318 53.1623 91.9318 52.9731C91.9318 52.7839 91.9958 52.6252 92.124 52.497C92.2522 52.3688 92.4109 52.3047 92.6001 52.3047C92.7832 52.3047 92.9389 52.3688 93.067 52.497C93.1952 52.6252 93.2593 52.7839 93.2593 52.9731C93.2593 53.1623 93.1952 53.321 93.067 53.4492C92.9389 53.5773 92.7832 53.6414 92.6001 53.6414ZM93.1128 54.3098V59.3545H92.0691V54.3098H93.1128ZM101.677 54.8866C101.677 55.2101 101.601 55.5153 101.448 55.8021C101.296 56.089 101.052 56.324 100.716 56.5071C100.38 56.6841 99.9499 56.7726 99.425 56.7726H98.2714V59.3545H97.2277V52.9914H99.425C99.9133 52.9914 100.325 53.0768 100.661 53.2477C101.003 53.4125 101.256 53.6384 101.421 53.9252C101.592 54.2121 101.677 54.5326 101.677 54.8866ZM99.425 55.9212C99.8217 55.9212 100.118 55.8327 100.313 55.6556C100.508 55.4725 100.606 55.2162 100.606 54.8866C100.606 54.1908 100.212 53.8428 99.425 53.8428H98.2714V55.9212H99.425ZM103.9 55.0422C104.052 54.7859 104.254 54.5875 104.504 54.4471C104.76 54.3006 105.062 54.2274 105.41 54.2274V55.3077H105.145C104.736 55.3077 104.424 55.4115 104.211 55.619C104.003 55.8266 103.9 56.1867 103.9 56.6994V59.3545H102.856V54.3098H103.9V55.0422ZM108.741 59.4369C108.265 59.4369 107.835 59.3301 107.45 59.1164C107.065 58.8967 106.763 58.5915 106.544 58.2009C106.324 57.8042 106.214 57.3464 106.214 56.8276C106.214 56.3148 106.327 55.8601 106.553 55.4634C106.779 55.0666 107.087 54.7615 107.477 54.5478C107.868 54.3342 108.305 54.2274 108.787 54.2274C109.269 54.2274 109.705 54.3342 110.096 54.5478C110.487 54.7615 110.795 55.0666 111.021 55.4634C111.247 55.8601 111.359 56.3148 111.359 56.8276C111.359 57.3403 111.243 57.795 111.012 58.1917C110.78 58.5885 110.462 58.8967 110.059 59.1164C109.663 59.3301 109.223 59.4369 108.741 59.4369ZM108.741 58.5305C109.009 58.5305 109.26 58.4664 109.492 58.3382C109.73 58.21 109.922 58.0178 110.068 57.7614C110.215 57.5051 110.288 57.1938 110.288 56.8276C110.288 56.4613 110.218 56.1531 110.078 55.9028C109.937 55.6465 109.751 55.4542 109.519 55.326C109.287 55.1979 109.037 55.1338 108.768 55.1338C108.5 55.1338 108.25 55.1979 108.018 55.326C107.792 55.4542 107.612 55.6465 107.477 55.9028C107.343 56.1531 107.276 56.4613 107.276 56.8276C107.276 57.3708 107.413 57.7919 107.688 58.091C107.969 58.384 108.32 58.5305 108.741 58.5305ZM112.226 56.8092C112.226 56.3026 112.33 55.854 112.538 55.4634C112.751 55.0727 113.038 54.7706 113.398 54.557C113.765 54.3372 114.17 54.2274 114.616 54.2274C114.946 54.2274 115.269 54.3006 115.586 54.4471C115.91 54.5875 116.166 54.7767 116.356 55.0148V52.5794H117.408V59.3545H116.356V58.5946C116.185 58.8387 115.947 59.0402 115.641 59.1988C115.342 59.3575 114.997 59.4369 114.607 59.4369C114.167 59.4369 113.765 59.327 113.398 59.1073C113.038 58.8815 112.751 58.5702 112.538 58.1734C112.33 57.7706 112.226 57.3159 112.226 56.8092ZM116.356 56.8276C116.356 56.4796 116.282 56.1775 116.136 55.9212C115.995 55.6648 115.809 55.4695 115.577 55.3352C115.345 55.2009 115.095 55.1338 114.827 55.1338C114.558 55.1338 114.308 55.2009 114.076 55.3352C113.844 55.4634 113.655 55.6556 113.508 55.912C113.368 56.1623 113.298 56.4613 113.298 56.8092C113.298 57.1572 113.368 57.4623 113.508 57.7248C113.655 57.9873 113.844 58.1887 114.076 58.3291C114.314 58.4634 114.564 58.5305 114.827 58.5305C115.095 58.5305 115.345 58.4634 115.577 58.3291C115.809 58.1948 115.995 57.9995 116.136 57.7431C116.282 57.4807 116.356 57.1755 116.356 56.8276ZM123.531 54.3098V59.3545H122.487V58.7594C122.323 58.9669 122.106 59.1317 121.837 59.2538C121.575 59.3698 121.294 59.4277 120.995 59.4277C120.598 59.4277 120.241 59.3453 119.924 59.1805C119.613 59.0157 119.365 58.7716 119.182 58.4481C119.005 58.1246 118.917 57.734 118.917 57.2762V54.3098H119.951V57.1205C119.951 57.5722 120.064 57.9201 120.29 58.1643C120.516 58.4023 120.824 58.5213 121.215 58.5213C121.605 58.5213 121.914 58.4023 122.139 58.1643C122.371 57.9201 122.487 57.5722 122.487 57.1205V54.3098H123.531ZM127.087 56.8367L129.413 59.3545H128.003L126.135 57.1846V59.3545H125.091V52.5794H126.135V56.5163L127.966 54.3098H129.413L127.087 56.8367ZM133.949 52.9914V59.3545H132.905V52.9914H133.949ZM138.048 54.2274C138.445 54.2274 138.799 54.3098 139.11 54.4746C139.427 54.6394 139.674 54.8835 139.851 55.207C140.028 55.5305 140.117 55.9212 140.117 56.3789V59.3545H139.082V56.5346C139.082 56.0829 138.969 55.738 138.744 55.5C138.518 55.2559 138.21 55.1338 137.819 55.1338C137.428 55.1338 137.117 55.2559 136.885 55.5C136.659 55.738 136.546 56.0829 136.546 56.5346V59.3545H135.503V54.3098H136.546V54.8866C136.717 54.6791 136.934 54.5173 137.196 54.4013C137.465 54.2854 137.749 54.2274 138.048 54.2274ZM141.283 56.8092C141.283 56.3026 141.387 55.854 141.595 55.4634C141.808 55.0727 142.095 54.7706 142.455 54.557C142.822 54.3372 143.228 54.2274 143.673 54.2274C144.003 54.2274 144.326 54.3006 144.644 54.4471C144.967 54.5875 145.223 54.7767 145.413 55.0148V52.5794H146.466V59.3545H145.413V58.5946C145.242 58.8387 145.004 59.0402 144.699 59.1988C144.399 59.3575 144.055 59.4369 143.664 59.4369C143.224 59.4369 142.822 59.327 142.455 59.1073C142.095 58.8815 141.808 58.5702 141.595 58.1734C141.387 57.7706 141.283 57.3159 141.283 56.8092ZM145.413 56.8276C145.413 56.4796 145.339 56.1775 145.193 55.9212C145.053 55.6648 144.866 55.4695 144.634 55.3352C144.402 55.2009 144.152 55.1338 143.884 55.1338C143.615 55.1338 143.365 55.2009 143.133 55.3352C142.901 55.4634 142.712 55.6556 142.565 55.912C142.425 56.1623 142.355 56.4613 142.355 56.8092C142.355 57.1572 142.425 57.4623 142.565 57.7248C142.712 57.9873 142.901 58.1887 143.133 58.3291C143.371 58.4634 143.621 58.5305 143.884 58.5305C144.152 58.5305 144.402 58.4634 144.634 58.3291C144.866 58.1948 145.053 57.9995 145.193 57.7431C145.339 57.4807 145.413 57.1755 145.413 56.8276ZM150.208 59.4369C149.732 59.4369 149.301 59.3301 148.917 59.1164C148.532 58.8967 148.23 58.5915 148.01 58.2009C147.791 57.8042 147.681 57.3464 147.681 56.8276C147.681 56.3148 147.794 55.8601 148.02 55.4634C148.245 55.0666 148.554 54.7615 148.944 54.5478C149.335 54.3342 149.771 54.2274 150.254 54.2274C150.736 54.2274 151.172 54.3342 151.563 54.5478C151.953 54.7615 152.262 55.0666 152.487 55.4634C152.713 55.8601 152.826 56.3148 152.826 56.8276C152.826 57.3403 152.71 57.795 152.478 58.1917C152.246 58.5885 151.929 58.8967 151.526 59.1164C151.129 59.3301 150.69 59.4369 150.208 59.4369ZM150.208 58.5305C150.476 58.5305 150.727 58.4664 150.958 58.3382C151.197 58.21 151.389 58.0178 151.535 57.7614C151.682 57.5051 151.755 57.1938 151.755 56.8276C151.755 56.4613 151.685 56.1531 151.544 55.9028C151.404 55.6465 151.218 55.4542 150.986 55.326C150.754 55.1979 150.504 55.1338 150.235 55.1338C149.967 55.1338 149.716 55.1979 149.484 55.326C149.259 55.4542 149.079 55.6465 148.944 55.9028C148.81 56.1531 148.743 56.4613 148.743 56.8276C148.743 57.3708 148.88 57.7919 149.155 58.091C149.436 58.384 149.787 58.5305 150.208 58.5305ZM156.586 54.2274C156.983 54.2274 157.337 54.3098 157.648 54.4746C157.966 54.6394 158.213 54.8835 158.39 55.207C158.567 55.5305 158.656 55.9212 158.656 56.3789V59.3545H157.621V56.5346C157.621 56.0829 157.508 55.738 157.282 55.5C157.056 55.2559 156.748 55.1338 156.357 55.1338C155.967 55.1338 155.656 55.2559 155.424 55.5C155.198 55.738 155.085 56.0829 155.085 56.5346V59.3545H154.041V54.3098H155.085V54.8866C155.256 54.6791 155.472 54.5173 155.735 54.4013C156.003 54.2854 156.287 54.2274 156.586 54.2274ZM164.794 56.7085C164.794 56.8978 164.781 57.0687 164.757 57.2212H160.902C160.933 57.6241 161.082 57.9476 161.351 58.1917C161.62 58.4359 161.949 58.558 162.34 58.558C162.901 58.558 163.298 58.323 163.53 57.853H164.656C164.504 58.3169 164.226 58.6983 163.823 58.9974C163.426 59.2904 162.932 59.4369 162.34 59.4369C161.858 59.4369 161.424 59.3301 161.04 59.1164C160.661 58.8967 160.362 58.5915 160.143 58.2009C159.929 57.8042 159.822 57.3464 159.822 56.8276C159.822 56.3087 159.926 55.854 160.133 55.4634C160.347 55.0666 160.643 54.7615 161.021 54.5478C161.406 54.3342 161.845 54.2274 162.34 54.2274C162.816 54.2274 163.24 54.3311 163.612 54.5387C163.985 54.7462 164.275 55.0392 164.482 55.4176C164.69 55.7899 164.794 56.2202 164.794 56.7085ZM163.704 56.3789C163.698 55.9944 163.561 55.6862 163.292 55.4542C163.023 55.2223 162.691 55.1063 162.294 55.1063C161.934 55.1063 161.626 55.2223 161.369 55.4542C161.113 55.6801 160.96 55.9883 160.912 56.3789H163.704ZM167.835 59.4369C167.438 59.4369 167.081 59.3667 166.764 59.2263C166.452 59.0798 166.205 58.8845 166.022 58.6404C165.839 58.3901 165.741 58.1124 165.729 57.8072H166.809C166.828 58.0208 166.928 58.2009 167.112 58.3474C167.301 58.4878 167.536 58.558 167.817 58.558C168.11 58.558 168.335 58.503 168.494 58.3932C168.659 58.2772 168.741 58.1307 168.741 57.9537C168.741 57.7645 168.65 57.6241 168.467 57.5325C168.29 57.441 168.006 57.3403 167.615 57.2304C167.237 57.1266 166.928 57.0259 166.69 56.9283C166.452 56.8306 166.245 56.6811 166.068 56.4796C165.897 56.2782 165.812 56.0127 165.812 55.6831C165.812 55.4146 165.891 55.1704 166.05 54.9507C166.208 54.7248 166.434 54.5478 166.727 54.4196C167.026 54.2915 167.368 54.2274 167.752 54.2274C168.326 54.2274 168.787 54.3739 169.135 54.6668C169.489 54.9537 169.678 55.3474 169.703 55.8479H168.659C168.641 55.6221 168.549 55.442 168.384 55.3077C168.219 55.1735 167.997 55.1063 167.716 55.1063C167.441 55.1063 167.231 55.1582 167.084 55.262C166.938 55.3657 166.864 55.5031 166.864 55.674C166.864 55.8082 166.913 55.9212 167.011 56.0127C167.109 56.1043 167.228 56.1775 167.368 56.2324C167.508 56.2813 167.716 56.3454 167.991 56.4247C168.357 56.5224 168.656 56.6231 168.888 56.7268C169.126 56.8245 169.33 56.971 169.501 57.1663C169.672 57.3616 169.761 57.621 169.767 57.9445C169.767 58.2314 169.687 58.4878 169.529 58.7136C169.37 58.9394 169.144 59.1164 168.851 59.2446C168.564 59.3728 168.226 59.4369 167.835 59.4369ZM171.609 53.6414C171.419 53.6414 171.261 53.5773 171.133 53.4492C171.004 53.321 170.94 53.1623 170.94 52.9731C170.94 52.7839 171.004 52.6252 171.133 52.497C171.261 52.3688 171.419 52.3047 171.609 52.3047C171.792 52.3047 171.947 52.3688 172.076 52.497C172.204 52.6252 172.268 52.7839 172.268 52.9731C172.268 53.1623 172.204 53.321 172.076 53.4492C171.947 53.5773 171.792 53.6414 171.609 53.6414ZM172.121 54.3098V59.3545H171.078V54.3098H172.121ZM173.327 56.8092C173.327 56.3026 173.431 55.854 173.638 55.4634C173.852 55.0727 174.139 54.7706 174.499 54.557C174.865 54.3372 175.268 54.2274 175.707 54.2274C176.104 54.2274 176.449 54.3067 176.742 54.4654C177.041 54.618 177.279 54.8103 177.456 55.0422V54.3098H178.509V59.3545H177.456V58.6037C177.279 58.8418 177.038 59.0402 176.733 59.1988C176.428 59.3575 176.08 59.4369 175.689 59.4369C175.256 59.4369 174.859 59.327 174.499 59.1073C174.139 58.8815 173.852 58.5702 173.638 58.1734C173.431 57.7706 173.327 57.3159 173.327 56.8092ZM177.456 56.8276C177.456 56.4796 177.383 56.1775 177.236 55.9212C177.096 55.6648 176.91 55.4695 176.678 55.3352C176.446 55.2009 176.196 55.1338 175.927 55.1338C175.658 55.1338 175.408 55.2009 175.176 55.3352C174.944 55.4634 174.755 55.6556 174.609 55.912C174.468 56.1623 174.398 56.4613 174.398 56.8092C174.398 57.1572 174.468 57.4623 174.609 57.7248C174.755 57.9873 174.944 58.1887 175.176 58.3291C175.414 58.4634 175.665 58.5305 175.927 58.5305C176.196 58.5305 176.446 58.4634 176.678 58.3291C176.91 58.1948 177.096 57.9995 177.236 57.7431C177.383 57.4807 177.456 57.1755 177.456 56.8276Z" fill="black" fill-opacity="0.8"/>
</svg>
